# xmcd CD database file
#
# Track frame offsets:
#	150
#	9732
#	16659
#	26891
#	38574
#	51179
#	64492
#	75285
#	83055
#	95671
#	106129
#	113202
#	123226
#	131569
#
# Disc length: 1980 seconds
#
# Revision: 3
# Processed by: cddbd v1.5.2PL0 Copyright (c) Steve Scherf et al.
# Submitted via: CDex 1.70beta2
#
DISCID=a907ba0e
DTITLE=Country Gold - Contry Gold Vol.3
DYEAR=1999
DGENRE=Country
TTITLE0=Ned Miller  -  From A Jack To A King
TTITLE1=Marty Robbins - Maybelline
TTITLE2=Patsy Cline - Turn The Cards Slowly
TTITLE3=Kenny Rogers and The First Edition  -  Elvira
TTITLE4=Kitty Wells  - Making Believe
TTITLE5=Don Williams  - Ruby Tuesday
TTITLE6=Patsy Cline - Stop, Look And Listen
TTITLE7=George Jones  - Jambalaya
TTITLE8=Dolly Parton - Little Blossom
TTITLE9=Faron Young  - If You Ain't Lovin'
TTITLE10=Barbara Mandrell  -  Kentucky Means Paradise
TTITLE11=Willie Nelson  -  I Didn't Sleep A Wink Last Night
TTITLE12=Waylon Jennings  - Waylon Jennings - Abilene
TTITLE13=Johnny Lee  - Your Song
EXTD=YEAR: 1999
EXTT0=
EXTT1=
EXTT2=
EXTT3=
EXTT4=
EXTT5=
EXTT6=
EXTT7=
EXTT8=
EXTT9=
EXTT10=
EXTT11=
EXTT12=
EXTT13=
PLAYORDER=
